<svg width="40" height="40" viewBox="0 0 40 40" fill="none" xmlns="http://www.w3.org/2000/svg">
<circle cx="20" cy="20" r="19.5" stroke="white"/>
<path d="M20 27.5009C19.2364 27.5009 18.4729 27.4432 17.7093 27.3277C16.9457 27.2123 16.2104 27.0391 15.5034 26.7505C15.1075 26.5773 14.7115 26.3753 14.3722 26.0866C14.1176 25.8557 13.9197 25.5959 13.8066 25.2785C13.75 25.0764 13.75 24.8455 13.75 24.6435C13.8066 22.9983 14.4287 21.5551 15.56 20.3717C15.9276 19.9676 16.3801 19.6501 16.8326 19.3615C16.8609 19.3326 16.8891 19.3326 16.9174 19.3615C17.5679 19.9099 18.3032 20.2563 19.1516 20.4006C20.5939 20.6315 21.8948 20.314 23.0543 19.3904C23.1109 19.3615 23.1391 19.3326 23.1957 19.3904C24.6946 20.314 25.6561 21.6417 26.0803 23.3735C26.1934 23.8353 26.25 24.326 26.25 24.8166C26.25 25.2496 26.1086 25.6248 25.8258 25.9423C25.543 26.2309 25.2319 26.4618 24.8643 26.635C24.2986 26.9237 23.6765 27.0968 23.0543 27.2412C22.319 27.3855 21.5837 27.4721 20.8484 27.5298C20.5656 27.4721 20.2828 27.5009 20 27.5009Z" fill="white"/>
<path d="M20.0001 19.6781C17.7093 19.6781 15.8711 17.802 15.8711 15.464C15.8711 13.1261 17.7093 11.25 20.0001 11.25C22.2908 11.25 24.129 13.1261 24.129 15.4929C24.129 17.7731 22.2625 19.6781 20.0001 19.6781Z" fill="white"/>
</svg>
