<svg xmlns="http://www.w3.org/2000/svg"><style>:root svg:not(:target){display:none}</style><svg fill="none" id="Group-124" viewBox="0 0 103 62"><path d="M18.744 18.744 7.57 0H1.802v30.279h6.489V12.256l9.011 14.779h2.884l9.012-14.78V30.28h6.488V0h-5.767L18.744 18.744ZM50.105 17.663h14.058v-5.407H50.105V5.767h15.86V0h-23.07v30.279h23.43v-5.767h-16.22v-6.85ZM100.209 7.21c-1.442-2.163-3.244-3.966-5.767-5.408C91.918.721 89.035 0 85.79 0H72.093v30.279H85.79c3.245 0 6.128-.721 8.651-1.802 2.524-1.082 4.326-2.884 5.768-5.407 1.442-2.163 2.163-5.047 2.163-7.93 0-2.884-.721-5.768-2.163-7.93Zm-6.128 12.976c-.72 1.442-1.802 2.523-3.605 3.244-1.802.721-3.244 1.082-5.406 1.082H78.58V5.767h6.489c2.162 0 3.604.36 5.406 1.082 1.803.72 2.524 1.802 3.605 3.244.721 1.442 1.081 3.244 1.081 5.046.36 1.803-.36 3.605-1.08 5.047ZM9.012 41.094c-1.442 0-2.884.36-4.326.72-1.442.361-2.523 1.082-3.605 1.803l1.442 3.244c.721-.72 1.803-1.081 2.884-1.442 1.081-.36 2.163-.36 3.244-.36 1.803 0 2.884.36 3.605 1.081.72.721 1.081 1.803 1.081 3.244v.36H8.291c-1.803 0-3.605.361-4.686.722-1.082.36-2.163 1.081-2.524 2.163C.721 53.71 0 54.07 0 55.152c0 1.081.36 2.163.72 2.884.722.72 1.443 1.441 2.524 2.162 1.442.721 2.523 1.082 3.965 1.082 1.803 0 3.245-.36 4.326-1.082.72-.36 1.442-1.081 1.802-1.802v2.523h4.326V49.384c0-2.883-.721-5.046-2.163-6.127-1.442-1.442-3.965-2.163-6.488-2.163Zm2.162 15.86c-.72.721-1.802.721-2.883.721-1.082 0-2.163 0-2.884-.72-.721-.361-1.081-1.082-1.081-1.803 0-.721.36-1.442.72-1.803.721-.36 1.442-.72 3.245-.72h4.686v2.162c-.36 1.082-.721 1.803-1.803 2.163ZM36.046 50.825c-.72-.36-1.441-.72-2.523-.72-.72-.361-1.802-.361-2.523-.361-.721 0-1.802-.36-2.523-.36-.721 0-1.442-.361-1.803-.722-.36-.36-.72-.72-.72-1.441 0-.721.36-1.082 1.08-1.442.722-.36 1.803-.721 3.245-.721 1.081 0 1.802 0 2.884.36 1.081.36 1.802.721 2.883 1.082l1.803-3.605c-1.082-.36-2.163-1.081-3.244-1.081-1.442-.36-2.524-.36-3.966-.36-1.802 0-3.244.36-4.686.72-1.441.36-2.162 1.081-2.883 2.163-.721 1.081-1.082 2.163-1.082 3.244 0 1.081.36 2.163.721 2.884.36.72 1.082 1.081 1.803 1.802.72.36 1.441.721 2.523 1.081 1.081.36 1.802.36 2.523.36.72 0 1.802.361 2.523.361.721 0 1.442.36 1.803.721.36.36.72.721.72 1.082 0 .72-.36 1.081-1.08 1.441-.722.361-1.803.721-3.245.721-1.081 0-2.523 0-3.605-.36-1.081-.36-2.162-.72-3.244-1.442l-1.802 3.605c1.081.72 2.163 1.081 3.604 1.442 1.082-.36 2.884 0 4.326 0 1.802 0 3.244-.36 4.686-.721 1.442-.36 2.163-1.082 2.884-2.163.72-.721 1.081-1.802 1.081-3.244 0-1.082-.36-2.163-.72-2.524 0-1.08-.722-1.441-1.443-1.802ZM54.79 50.825c-.72-.36-1.441-.72-2.523-.72-.72-.361-1.802-.361-2.523-.361-.72 0-1.802-.36-2.523-.36-.721 0-1.442-.361-1.802-.722-.361-.36-.721-.72-.721-1.441 0-.721.36-1.082 1.081-1.442.72-.36 1.802-.721 3.244-.721 1.081 0 1.802 0 2.884.36 1.081.36 1.802.721 2.884 1.082l1.802-3.605c-1.082-.36-2.163-1.081-3.244-1.081-1.442-.36-2.523-.36-3.965-.36-1.803 0-3.245.36-4.686.72-1.442.36-2.163 1.081-2.884 2.163-.721 1.081-1.081 2.163-1.081 3.244 0 1.081.36 2.163.72 2.884.36.72 1.082 1.081 1.803 1.802.72.36 1.442.721 2.523 1.081.72.36 1.802.36 2.523.36.721 0 1.803.361 2.523.361.721 0 1.442.36 1.803.721.36.36.72.721.72 1.082 0 .72-.36 1.081-1.08 1.441-.722.361-1.803.721-3.245.721-1.081 0-2.523 0-3.605-.36-1.08-.36-2.162-.72-3.244-1.442l-1.802 3.605c1.081.72 2.163 1.081 3.605 1.442 1.442.36 2.883.72 4.686.72 1.802 0 3.244-.36 4.686-.72 1.442-.36 2.163-1.082 2.883-2.163.721-.721 1.082-1.803 1.082-3.244 0-1.082-.36-2.163-.721-2.524-.36-1.802-1.082-2.162-1.802-2.523ZM65.965 41.453h-4.686v19.465h4.686V41.453ZM84.349 50.825c-.721-.36-1.442-.72-2.524-.72-.72-.361-1.802-.361-2.523-.361-.72 0-1.802-.36-2.523-.36-.721 0-1.442-.361-1.802-.722-.361-.36-.721-.72-.721-1.441 0-.721.36-1.082 1.081-1.442.72-.36 1.802-.721 3.244-.721 1.081 0 1.802 0 2.884.36 1.081.36 1.802.721 2.884 1.082l1.802-3.605c-1.081-.36-2.163-1.081-3.244-1.081-1.442-.36-2.523-.36-3.965-.36-1.803 0-3.245.36-4.686.72-1.442.36-2.163 1.081-2.884 2.163-.721 1.081-1.082 2.163-1.082 3.244 0 1.081.36 2.163.721 2.884.36.72 1.082 1.081 1.803 1.802.72.36 1.442.721 2.523 1.081.72.36 1.802.36 2.523.36.721 0 1.802.361 2.523.361.721 0 1.442.36 1.803.721.36.36.72.721.72 1.082 0 .72-.36 1.081-1.08 1.441-.722.361-1.803.721-3.245.721-1.081 0-2.523 0-3.605-.36-1.08-.36-2.162-.72-3.244-1.442l-1.802 3.605c1.081.72 2.163 1.081 3.605 1.442 1.442.36 2.883.72 4.686.72 1.802 0 3.244-.36 4.686-.72 1.442-.36 2.163-1.082 2.883-2.163.721-.721 1.082-1.803 1.082-3.244 0-1.082-.36-2.163-.721-2.524-.36-1.802-1.081-2.162-1.802-2.523ZM101.29 56.594c-.721.36-1.442.72-2.523.72-.72 0-1.442-.36-2.163-.72-.72-.36-.72-1.081-.72-2.163V45.06h5.406v-3.604h-5.407v-4.326h-4.686v4.326h-3.244v3.604h3.244v9.372c0 2.163.721 3.605 1.803 5.047 1.081 1.081 2.883 1.802 5.046 1.802.721 0 1.442 0 2.523-.36l2.163-1.082-1.442-3.244Z" fill="#fff"></path></svg><svg fill="none" id="icon-close" viewBox="0 0 20 20"><path d="M.293 18.291a1 1 0 1 0 1.414 1.414L10 11.413l8.292 8.292a1 1 0 1 0 1.414-1.414l-8.292-8.292 8.292-8.292A1 1 0 1 0 18.291.293L9.999 8.585 1.707.293A1 1 0 1 0 .293 1.707L8.585 10 .293 18.291z" fill="#fff"></path></svg><svg fill="none" id="isAuthIcon" viewBox="0 0 40 40"><circle cx="20" cy="20" r="19.5" stroke="#fff"></circle><path d="M20 27.5c-.764 0-1.527-.057-2.29-.172-.764-.116-1.5-.289-2.207-.578-.396-.173-.792-.375-1.13-.663a1.99 1.99 0 0 1-.566-.808c-.057-.203-.057-.433-.057-.636.057-1.645.679-3.088 1.81-4.271.368-.404.82-.722 1.273-1.01.028-.03.056-.03.084 0 .65.548 1.386.894 2.235 1.039 1.442.23 2.743-.087 3.902-1.01.057-.03.085-.058.142 0 1.499.923 2.46 2.25 2.884 3.983.113.461.17.952.17 1.443 0 .433-.141.808-.424 1.125-.283.289-.594.52-.962.693-.565.289-1.188.462-1.81.606-.735.145-1.47.231-2.206.289-.282-.058-.565-.03-.848-.03Z" fill="#fff"></path><path d="M20 19.678c-2.29 0-4.129-1.876-4.129-4.214 0-2.338 1.838-4.214 4.13-4.214 2.29 0 4.128 1.876 4.128 4.243 0 2.28-1.867 4.185-4.129 4.185Z" fill="#fff"></path></svg><svg fill="none" id="logo" viewBox="0 0 65 39"><path d="M11.79 11.79 4.763 0H1.134v19.047h4.081V7.709l5.669 9.297h1.814l5.668-9.297v11.338h4.082V0H18.82l-7.03 11.79ZM31.517 11.11h8.843v-3.4h-8.843V3.627h9.977V0H26.983v19.047H41.72v-3.628H31.517V11.11ZM63.035 4.535c-.907-1.36-2.041-2.494-3.628-3.401A13.7 13.7 0 0 0 53.965 0h-8.616v19.047h8.616a13.7 13.7 0 0 0 5.442-1.134c1.587-.68 2.72-1.814 3.628-3.401.907-1.36 1.36-3.175 1.36-4.989s-.453-3.628-1.36-4.988Zm-3.855 8.163c-.453.907-1.134 1.587-2.267 2.04-1.134.454-2.041.68-3.401.68H49.43V3.629h4.081c1.36 0 2.268.227 3.402.68 1.133.454 1.587 1.134 2.267 2.04.453.908.68 2.042.68 3.175.227 1.134-.227 2.268-.68 3.175ZM5.669 25.85c-.907 0-1.814.226-2.721.453s-1.588.68-2.268 1.134l.907 2.04c.454-.453 1.134-.68 1.814-.907.68-.226 1.36-.226 2.04-.226 1.135 0 1.815.226 2.268.68.454.453.68 1.134.68 2.04v.227H5.216c-1.134 0-2.267.227-2.948.454-.68.227-1.36.68-1.587 1.36-.227.68-.68.907-.68 1.588 0 .68.227 1.36.453 1.814.454.453.907.907 1.588 1.36.907.454 1.587.68 2.494.68 1.134 0 2.04-.226 2.72-.68.454-.227.908-.68 1.135-1.134v1.588h2.72v-7.256c0-1.814-.453-3.175-1.36-3.855-.907-.907-2.494-1.36-4.081-1.36Zm1.36 9.976c-.453.454-1.134.454-1.814.454-.68 0-1.36 0-1.814-.454-.453-.226-.68-.68-.68-1.133 0-.454.227-.907.453-1.134.454-.227.907-.454 2.041-.454h2.948v1.36c-.227.681-.454 1.135-1.134 1.361ZM22.674 31.971c-.453-.226-.907-.453-1.587-.453-.453-.227-1.134-.227-1.587-.227-.453 0-1.134-.227-1.587-.227-.454 0-.907-.226-1.134-.453-.227-.227-.453-.453-.453-.907 0-.453.226-.68.68-.907.453-.227 1.134-.453 2.04-.453.68 0 1.134 0 1.814.226.68.227 1.134.454 1.814.68l1.134-2.267c-.68-.227-1.36-.68-2.04-.68-.908-.227-1.588-.227-2.495-.227-1.133 0-2.04.227-2.947.454-.907.226-1.36.68-1.814 1.36-.454.68-.68 1.36-.68 2.04 0 .681.226 1.361.453 1.815.227.453.68.68 1.134 1.134.453.226.907.453 1.587.68.68.227 1.134.227 1.587.227.454 0 1.134.226 1.587.226.454 0 .907.227 1.134.454.227.226.453.453.453.68 0 .453-.226.68-.68.907-.453.227-1.134.453-2.04.453-.68 0-1.588 0-2.268-.226-.68-.227-1.36-.454-2.04-.907l-1.134 2.267c.68.454 1.36.68 2.267.907.68-.227 1.814 0 2.721 0 1.134 0 2.04-.227 2.948-.453.907-.227 1.36-.68 1.814-1.36.453-.454.68-1.135.68-2.042 0-.68-.227-1.36-.454-1.587 0-.68-.453-.907-.907-1.133ZM34.465 31.971c-.454-.226-.907-.453-1.587-.453-.454-.227-1.134-.227-1.587-.227-.454 0-1.134-.227-1.588-.227-.453 0-.907-.226-1.133-.453-.227-.227-.454-.453-.454-.907 0-.453.227-.68.68-.907.454-.227 1.134-.453 2.041-.453.68 0 1.134 0 1.814.226.68.227 1.134.454 1.814.68l1.134-2.267c-.68-.227-1.36-.68-2.041-.68-.907-.227-1.587-.227-2.494-.227-1.134 0-2.04.227-2.948.454-.907.226-1.36.68-1.814 1.36-.453.68-.68 1.36-.68 2.04 0 .681.227 1.361.454 1.815.226.453.68.68 1.133 1.134.454.226.907.453 1.587.68.454.227 1.134.227 1.588.227.453 0 1.133.226 1.587.226.453 0 .907.227 1.134.454.226.226.453.453.453.68 0 .453-.227.68-.68.907-.454.227-1.134.453-2.04.453-.681 0-1.588 0-2.268-.226-.68-.227-1.36-.454-2.041-.907l-1.134 2.267c.68.454 1.36.68 2.268.907.907.227 1.814.454 2.947.454 1.134 0 2.041-.227 2.948-.454s1.36-.68 1.814-1.36c.453-.454.68-1.134.68-2.041 0-.68-.227-1.36-.453-1.587-.227-1.134-.68-1.36-1.134-1.587ZM41.494 26.076h-2.948V38.32h2.948V26.076ZM53.058 31.971c-.453-.226-.907-.453-1.587-.453-.454-.227-1.134-.227-1.587-.227-.454 0-1.134-.227-1.588-.227-.453 0-.907-.226-1.133-.453-.227-.227-.454-.453-.454-.907 0-.453.227-.68.68-.907.454-.227 1.134-.453 2.041-.453.68 0 1.134 0 1.814.226.68.227 1.134.454 1.814.68l1.134-2.267c-.68-.227-1.36-.68-2.041-.68-.907-.227-1.587-.227-2.494-.227-1.134 0-2.04.227-2.948.454-.907.226-1.36.68-1.814 1.36-.453.68-.68 1.36-.68 2.04 0 .681.227 1.361.453 1.815.227.453.68.68 1.134 1.134.454.226.907.453 1.587.68.454.227 1.134.227 1.588.227.453 0 1.133.226 1.587.226.453 0 .907.227 1.133.454.227.226.454.453.454.68 0 .453-.227.68-.68.907-.454.227-1.134.453-2.04.453-.681 0-1.588 0-2.268-.226-.68-.227-1.36-.454-2.041-.907l-1.134 2.267c.68.454 1.36.68 2.268.907.907.227 1.814.454 2.947.454 1.134 0 2.041-.227 2.948-.454s1.36-.68 1.814-1.36c.453-.454.68-1.134.68-2.041 0-.68-.227-1.36-.453-1.587-.227-1.134-.68-1.36-1.134-1.587ZM63.715 35.6c-.454.226-.907.453-1.587.453-.454 0-.907-.227-1.36-.453-.454-.227-.454-.68-.454-1.36v-5.896h3.401v-2.268h-3.401v-2.72h-2.948v2.72h-2.04v2.268h2.04v5.895c0 1.36.454 2.268 1.134 3.175.68.68 1.814 1.133 3.174 1.133.454 0 .907 0 1.587-.226l1.36-.68-.906-2.041Z" fill="#fff"></path></svg></svg>