<svg xmlns="http://www.w3.org/2000/svg"><style>:root svg:not(:target){display:none}</style><svg fill="none" id="Group-124" viewBox="0 0 103 62"><path d="M18.744 18.744 7.57 0H1.802v30.279h6.489V12.256l9.011 14.779h2.884l9.012-14.78V30.28h6.488V0h-5.767L18.744 18.744ZM50.105 17.663h14.058v-5.407H50.105V5.767h15.86V0h-23.07v30.279h23.43v-5.767h-16.22v-6.85ZM100.209 7.21c-1.442-2.163-3.244-3.966-5.767-5.408C91.918.721 89.035 0 85.79 0H72.093v30.279H85.79c3.245 0 6.128-.721 8.651-1.802 2.524-1.082 4.326-2.884 5.768-5.407 1.442-2.163 2.163-5.047 2.163-7.93 0-2.884-.721-5.768-2.163-7.93Zm-6.128 12.976c-.72 1.442-1.802 2.523-3.605 3.244-1.802.721-3.244 1.082-5.406 1.082H78.58V5.767h6.489c2.162 0 3.604.36 5.406 1.082 1.803.72 2.524 1.802 3.605 3.244.721 1.442 1.081 3.244 1.081 5.046.36 1.803-.36 3.605-1.08 5.047ZM9.012 41.094c-1.442 0-2.884.36-4.326.72-1.442.361-2.523 1.082-3.605 1.803l1.442 3.244c.721-.72 1.803-1.081 2.884-1.442 1.081-.36 2.163-.36 3.244-.36 1.803 0 2.884.36 3.605 1.081.72.721 1.081 1.803 1.081 3.244v.36H8.291c-1.803 0-3.605.361-4.686.722-1.082.36-2.163 1.081-2.524 2.163C.721 53.71 0 54.07 0 55.152c0 1.081.36 2.163.72 2.884.722.72 1.443 1.441 2.524 2.162 1.442.721 2.523 1.082 3.965 1.082 1.803 0 3.245-.36 4.326-1.082.72-.36 1.442-1.081 1.802-1.802v2.523h4.326V49.384c0-2.883-.721-5.046-2.163-6.127-1.442-1.442-3.965-2.163-6.488-2.163Zm2.162 15.86c-.72.721-1.802.721-2.883.721-1.082 0-2.163 0-2.884-.72-.721-.361-1.081-1.082-1.081-1.803 0-.721.36-1.442.72-1.803.721-.36 1.442-.72 3.245-.72h4.686v2.162c-.36 1.082-.721 1.803-1.803 2.163ZM36.046 50.825c-.72-.36-1.441-.72-2.523-.72-.72-.361-1.802-.361-2.523-.361-.721 0-1.802-.36-2.523-.36-.721 0-1.442-.361-1.803-.722-.36-.36-.72-.72-.72-1.441 0-.721.36-1.082 1.08-1.442.722-.36 1.803-.721 3.245-.721 1.081 0 1.802 0 2.884.36 1.081.36 1.802.721 2.883 1.082l1.803-3.605c-1.082-.36-2.163-1.081-3.244-1.081-1.442-.36-2.524-.36-3.966-.36-1.802 0-3.244.36-4.686.72-1.441.36-2.162 1.081-2.883 2.163-.721 1.081-1.082 2.163-1.082 3.244 0 1.081.36 2.163.721 2.884.36.72 1.082 1.081 1.803 1.802.72.36 1.441.721 2.523 1.081 1.081.36 1.802.36 2.523.36.72 0 1.802.361 2.523.361.721 0 1.442.36 1.803.721.36.36.72.721.72 1.082 0 .72-.36 1.081-1.08 1.441-.722.361-1.803.721-3.245.721-1.081 0-2.523 0-3.605-.36-1.081-.36-2.162-.72-3.244-1.442l-1.802 3.605c1.081.72 2.163 1.081 3.604 1.442 1.082-.36 2.884 0 4.326 0 1.802 0 3.244-.36 4.686-.721 1.442-.36 2.163-1.082 2.884-2.163.72-.721 1.081-1.802 1.081-3.244 0-1.082-.36-2.163-.72-2.524 0-1.08-.722-1.441-1.443-1.802ZM54.79 50.825c-.72-.36-1.441-.72-2.523-.72-.72-.361-1.802-.361-2.523-.361-.72 0-1.802-.36-2.523-.36-.721 0-1.442-.361-1.802-.722-.361-.36-.721-.72-.721-1.441 0-.721.36-1.082 1.081-1.442.72-.36 1.802-.721 3.244-.721 1.081 0 1.802 0 2.884.36 1.081.36 1.802.721 2.884 1.082l1.802-3.605c-1.082-.36-2.163-1.081-3.244-1.081-1.442-.36-2.523-.36-3.965-.36-1.803 0-3.245.36-4.686.72-1.442.36-2.163 1.081-2.884 2.163-.721 1.081-1.081 2.163-1.081 3.244 0 1.081.36 2.163.72 2.884.36.72 1.082 1.081 1.803 1.802.72.36 1.442.721 2.523 1.081.72.36 1.802.36 2.523.36.721 0 1.803.361 2.523.361.721 0 1.442.36 1.803.721.36.36.72.721.72 1.082 0 .72-.36 1.081-1.08 1.441-.722.361-1.803.721-3.245.721-1.081 0-2.523 0-3.605-.36-1.08-.36-2.162-.72-3.244-1.442l-1.802 3.605c1.081.72 2.163 1.081 3.605 1.442 1.442.36 2.883.72 4.686.72 1.802 0 3.244-.36 4.686-.72 1.442-.36 2.163-1.082 2.883-2.163.721-.721 1.082-1.803 1.082-3.244 0-1.082-.36-2.163-.721-2.524-.36-1.802-1.082-2.162-1.802-2.523ZM65.965 41.453h-4.686v19.465h4.686V41.453ZM84.349 50.825c-.721-.36-1.442-.72-2.524-.72-.72-.361-1.802-.361-2.523-.361-.72 0-1.802-.36-2.523-.36-.721 0-1.442-.361-1.802-.722-.361-.36-.721-.72-.721-1.441 0-.721.36-1.082 1.081-1.442.72-.36 1.802-.721 3.244-.721 1.081 0 1.802 0 2.884.36 1.081.36 1.802.721 2.884 1.082l1.802-3.605c-1.081-.36-2.163-1.081-3.244-1.081-1.442-.36-2.523-.36-3.965-.36-1.803 0-3.245.36-4.686.72-1.442.36-2.163 1.081-2.884 2.163-.721 1.081-1.082 2.163-1.082 3.244 0 1.081.36 2.163.721 2.884.36.72 1.082 1.081 1.803 1.802.72.36 1.442.721 2.523 1.081.72.36 1.802.36 2.523.36.721 0 1.802.361 2.523.361.721 0 1.442.36 1.803.721.36.36.72.721.72 1.082 0 .72-.36 1.081-1.08 1.441-.722.361-1.803.721-3.245.721-1.081 0-2.523 0-3.605-.36-1.08-.36-2.162-.72-3.244-1.442l-1.802 3.605c1.081.72 2.163 1.081 3.605 1.442 1.442.36 2.883.72 4.686.72 1.802 0 3.244-.36 4.686-.72 1.442-.36 2.163-1.082 2.883-2.163.721-.721 1.082-1.803 1.082-3.244 0-1.082-.36-2.163-.721-2.524-.36-1.802-1.081-2.162-1.802-2.523ZM101.29 56.594c-.721.36-1.442.72-2.523.72-.72 0-1.442-.36-2.163-.72-.72-.36-.72-1.081-.72-2.163V45.06h5.406v-3.604h-5.407v-4.326h-4.686v4.326h-3.244v3.604h3.244v9.372c0 2.163.721 3.605 1.803 5.047 1.081 1.081 2.883 1.802 5.046 1.802.721 0 1.442 0 2.523-.36l2.163-1.082-1.442-3.244Z" fill="#fff"></path></svg><svg fill="none" id="Group-29" viewBox="0 0 40 40"><circle cx="20" cy="20" transform="matrix(1 0 0 -1 0 40)" fill="#fff" r="20"></circle><path d="M25.658 8.334c-.329.053-.657.1-.983.16-1.271.235-2.459.708-3.616 1.27-1.893.92-3.654 2.048-5.23 3.435-3.161 2.773-5.664 6.016-7.07 10.01-.348.987-.556 2.001-.533 3.056.024 1.014.356 1.905 1.077 2.633.64.646 1.261 1.314 1.946 1.906 1.11.961 2.254.948 3.321-.05a72.675 72.675 0 0 0 3.13-3.13c.832-.877.829-2.071.014-2.966-.57-.625-1.188-1.21-1.795-1.802-.12-.116-.131-.2-.06-.346.603-1.254 1.479-2.311 2.425-3.315.963-1.025 2.023-1.94 3.214-2.69.312-.2.651-.357.973-.543.128-.076.205-.063.309.044.506.512 1.016 1.017 1.53 1.52.399.392.848.71 1.419.804.771.126 1.429-.123 1.972-.655.993-.968 1.976-1.946 2.956-2.923 1.057-1.051 1.14-2.242.164-3.359-.674-.771-1.422-1.486-2.174-2.188-.533-.499-1.207-.745-1.935-.831-.05-.007-.101-.027-.151-.04h-.903Zm.45 1.164c.704-.014 1.355.162 1.865.651.684.656 1.345 1.33 1.99 2.022.49.529.48 1.094-.027 1.613a191.908 191.908 0 0 1-3.097 3.07c-.42.409-.96.412-1.43.053-.106-.083-.204-.18-.301-.273-.567-.559-1.127-1.12-1.694-1.676-.37-.363-.769-.426-1.228-.193-.332.166-.664.336-.983.525-1.506.895-2.811 2.03-3.99 3.313-.995 1.084-1.898 2.234-2.509 3.585-.271.602-.204.937.275 1.396a84.103 84.103 0 0 1 1.658 1.617c.644.651.637 1.18.003 1.842l-.017.016c-.939.931-1.878 1.87-2.824 2.794a1.783 1.783 0 0 1-.514.366c-.533.24-.96.003-1.335-.36-.577-.558-1.157-1.114-1.704-1.699a3.396 3.396 0 0 1-.638-.948c-.318-.748-.238-1.54-.077-2.314.309-1.503.91-2.9 1.657-4.233a24.492 24.492 0 0 1 5.026-6.246c2.02-1.812 4.281-3.242 6.814-4.24.99-.392 2.01-.648 3.08-.681Z" fill="#39CE8E" stroke="#39CE8E" stroke-width=".4"></path></svg><svg fill="none" id="Group-30" viewBox="0 0 40 41"><ellipse cx="19.831" cy="20.007" rx="19.831" ry="20.007" transform="matrix(1 0 0 -1 0 40.014)" fill="#fff"></ellipse><path d="M8.073 13.69v12.213l.084.367c.28 1.127 1.202 1.81 2.454 1.81h18.822c.073 0 .147 0 .22-.002 1.33-.071 2.279-1.043 2.308-2.374.008-.374.002-.749.002-1.12V14.046c0-1.058-.453-1.839-1.425-2.292-.186-.086-.393-.134-.592-.196H10.1c-.05.018-.099.039-.149.052-.95.236-1.545.83-1.8 1.77-.028.1-.052.205-.078.31Zm22.342 13.23c-.309.225-.628.254-.961.254-6.285-.003-12.569-.003-18.853-.003-.11 0-.223.013-.328-.01-.22-.055-.437-.134-.696-.215 2.263-2.575 4.48-5.098 6.703-7.63l.223.185c1.04.917 2.082 1.836 3.122 2.75.31.273.482.273.786.006l3.144-2.769c.057-.052.117-.1.188-.16l6.672 7.592ZM10.001 12.572l.024-.07c.16-.019.322-.05.482-.05 6.347-.003 12.694-.003 19.041 0 .163 0 .328.037.56.063-3.402 3.002-6.74 5.944-10.085 8.893-3.358-2.96-6.69-5.9-10.022-8.836Zm20.998 13.65c-2.221-2.53-4.398-5.005-6.58-7.491 2.148-1.894 4.262-3.757 6.452-5.69.07.338.178.616.18.89.011 3.922.009 7.847.006 11.768-.003.155-.034.304-.058.524ZM9.205 13.068c2.166 1.91 4.277 3.773 6.407 5.65l-6.515 7.417-.073-.032c-.01-.188-.029-.377-.029-.565-.003-3.812-.003-7.626 0-11.437 0-.118-.013-.241.013-.354.047-.215.12-.424.197-.678Z" fill="#39CE8E" stroke="#39CE8E" stroke-width=".4"></path></svg><svg fill="none" id="icon-close" viewBox="0 0 20 20"><path d="M.293 18.291a1 1 0 1 0 1.414 1.414L10 11.413l8.292 8.292a1 1 0 1 0 1.414-1.414l-8.292-8.292 8.292-8.292A1 1 0 1 0 18.291.293L9.999 8.585 1.707.293A1 1 0 1 0 .293 1.707L8.585 10 .293 18.291z" fill="#fff"></path></svg><svg fill="none" id="isAuthIcon" viewBox="0 0 40 40"><circle cx="20" cy="20" r="19.5" stroke="#fff"></circle><path d="M20 27.5c-.764 0-1.527-.057-2.29-.172-.764-.116-1.5-.289-2.207-.578-.396-.173-.792-.375-1.13-.663a1.99 1.99 0 0 1-.566-.808c-.057-.203-.057-.433-.057-.636.057-1.645.679-3.088 1.81-4.271.368-.404.82-.722 1.273-1.01.028-.03.056-.03.084 0 .65.548 1.386.894 2.235 1.039 1.442.23 2.743-.087 3.902-1.01.057-.03.085-.058.142 0 1.499.923 2.46 2.25 2.884 3.983.113.461.17.952.17 1.443 0 .433-.141.808-.424 1.125-.283.289-.594.52-.962.693-.565.289-1.188.462-1.81.606-.735.145-1.47.231-2.206.289-.282-.058-.565-.03-.848-.03Z" fill="#fff"></path><path d="M20 19.678c-2.29 0-4.129-1.876-4.129-4.214 0-2.338 1.838-4.214 4.13-4.214 2.29 0 4.128 1.876 4.128 4.243 0 2.28-1.867 4.185-4.129 4.185Z" fill="#fff"></path></svg><svg fill="none" id="logo" viewBox="0 0 65 39"><path d="M11.79 11.79 4.763 0H1.134v19.047h4.081V7.709l5.669 9.297h1.814l5.668-9.297v11.338h4.082V0H18.82l-7.03 11.79ZM31.517 11.11h8.843v-3.4h-8.843V3.627h9.977V0H26.983v19.047H41.72v-3.628H31.517V11.11ZM63.035 4.535c-.907-1.36-2.041-2.494-3.628-3.401A13.7 13.7 0 0 0 53.965 0h-8.616v19.047h8.616a13.7 13.7 0 0 0 5.442-1.134c1.587-.68 2.72-1.814 3.628-3.401.907-1.36 1.36-3.175 1.36-4.989s-.453-3.628-1.36-4.988Zm-3.855 8.163c-.453.907-1.134 1.587-2.267 2.04-1.134.454-2.041.68-3.401.68H49.43V3.629h4.081c1.36 0 2.268.227 3.402.68 1.133.454 1.587 1.134 2.267 2.04.453.908.68 2.042.68 3.175.227 1.134-.227 2.268-.68 3.175ZM5.669 25.85c-.907 0-1.814.226-2.721.453s-1.588.68-2.268 1.134l.907 2.04c.454-.453 1.134-.68 1.814-.907.68-.226 1.36-.226 2.04-.226 1.135 0 1.815.226 2.268.68.454.453.68 1.134.68 2.04v.227H5.216c-1.134 0-2.267.227-2.948.454-.68.227-1.36.68-1.587 1.36-.227.68-.68.907-.68 1.588 0 .68.227 1.36.453 1.814.454.453.907.907 1.588 1.36.907.454 1.587.68 2.494.68 1.134 0 2.04-.226 2.72-.68.454-.227.908-.68 1.135-1.134v1.588h2.72v-7.256c0-1.814-.453-3.175-1.36-3.855-.907-.907-2.494-1.36-4.081-1.36Zm1.36 9.976c-.453.454-1.134.454-1.814.454-.68 0-1.36 0-1.814-.454-.453-.226-.68-.68-.68-1.133 0-.454.227-.907.453-1.134.454-.227.907-.454 2.041-.454h2.948v1.36c-.227.681-.454 1.135-1.134 1.361ZM22.674 31.971c-.453-.226-.907-.453-1.587-.453-.453-.227-1.134-.227-1.587-.227-.453 0-1.134-.227-1.587-.227-.454 0-.907-.226-1.134-.453-.227-.227-.453-.453-.453-.907 0-.453.226-.68.68-.907.453-.227 1.134-.453 2.04-.453.68 0 1.134 0 1.814.226.68.227 1.134.454 1.814.68l1.134-2.267c-.68-.227-1.36-.68-2.04-.68-.908-.227-1.588-.227-2.495-.227-1.133 0-2.04.227-2.947.454-.907.226-1.36.68-1.814 1.36-.454.68-.68 1.36-.68 2.04 0 .681.226 1.361.453 1.815.227.453.68.68 1.134 1.134.453.226.907.453 1.587.68.68.227 1.134.227 1.587.227.454 0 1.134.226 1.587.226.454 0 .907.227 1.134.454.227.226.453.453.453.68 0 .453-.226.68-.68.907-.453.227-1.134.453-2.04.453-.68 0-1.588 0-2.268-.226-.68-.227-1.36-.454-2.04-.907l-1.134 2.267c.68.454 1.36.68 2.267.907.68-.227 1.814 0 2.721 0 1.134 0 2.04-.227 2.948-.453.907-.227 1.36-.68 1.814-1.36.453-.454.68-1.135.68-2.042 0-.68-.227-1.36-.454-1.587 0-.68-.453-.907-.907-1.133ZM34.465 31.971c-.454-.226-.907-.453-1.587-.453-.454-.227-1.134-.227-1.587-.227-.454 0-1.134-.227-1.588-.227-.453 0-.907-.226-1.133-.453-.227-.227-.454-.453-.454-.907 0-.453.227-.68.68-.907.454-.227 1.134-.453 2.041-.453.68 0 1.134 0 1.814.226.68.227 1.134.454 1.814.68l1.134-2.267c-.68-.227-1.36-.68-2.041-.68-.907-.227-1.587-.227-2.494-.227-1.134 0-2.04.227-2.948.454-.907.226-1.36.68-1.814 1.36-.453.68-.68 1.36-.68 2.04 0 .681.227 1.361.454 1.815.226.453.68.68 1.133 1.134.454.226.907.453 1.587.68.454.227 1.134.227 1.588.227.453 0 1.133.226 1.587.226.453 0 .907.227 1.134.454.226.226.453.453.453.68 0 .453-.227.68-.68.907-.454.227-1.134.453-2.04.453-.681 0-1.588 0-2.268-.226-.68-.227-1.36-.454-2.041-.907l-1.134 2.267c.68.454 1.36.68 2.268.907.907.227 1.814.454 2.947.454 1.134 0 2.041-.227 2.948-.454s1.36-.68 1.814-1.36c.453-.454.68-1.134.68-2.041 0-.68-.227-1.36-.453-1.587-.227-1.134-.68-1.36-1.134-1.587ZM41.494 26.076h-2.948V38.32h2.948V26.076ZM53.058 31.971c-.453-.226-.907-.453-1.587-.453-.454-.227-1.134-.227-1.587-.227-.454 0-1.134-.227-1.588-.227-.453 0-.907-.226-1.133-.453-.227-.227-.454-.453-.454-.907 0-.453.227-.68.68-.907.454-.227 1.134-.453 2.041-.453.68 0 1.134 0 1.814.226.68.227 1.134.454 1.814.68l1.134-2.267c-.68-.227-1.36-.68-2.041-.68-.907-.227-1.587-.227-2.494-.227-1.134 0-2.04.227-2.948.454-.907.226-1.36.68-1.814 1.36-.453.68-.68 1.36-.68 2.04 0 .681.227 1.361.453 1.815.227.453.68.68 1.134 1.134.454.226.907.453 1.587.68.454.227 1.134.227 1.588.227.453 0 1.133.226 1.587.226.453 0 .907.227 1.133.454.227.226.454.453.454.68 0 .453-.227.68-.68.907-.454.227-1.134.453-2.04.453-.681 0-1.588 0-2.268-.226-.68-.227-1.36-.454-2.041-.907l-1.134 2.267c.68.454 1.36.68 2.268.907.907.227 1.814.454 2.947.454 1.134 0 2.041-.227 2.948-.454s1.36-.68 1.814-1.36c.453-.454.68-1.134.68-2.041 0-.68-.227-1.36-.453-1.587-.227-1.134-.68-1.36-1.134-1.587ZM63.715 35.6c-.454.226-.907.453-1.587.453-.454 0-.907-.227-1.36-.453-.454-.227-.454-.68-.454-1.36v-5.896h3.401v-2.268h-3.401v-2.72h-2.948v2.72h-2.04v2.268h2.04v5.895c0 1.36.454 2.268 1.134 3.175.68.68 1.814 1.133 3.174 1.133.454 0 .907 0 1.587-.226l1.36-.68-.906-2.041Z" fill="#fff"></path></svg></svg>