<svg width="103" height="62" viewBox="0 0 103 62" fill="none" xmlns="http://www.w3.org/2000/svg">
<path d="M18.7441 18.7441L7.56973 0H1.80231V30.279H8.29066V12.2558L17.3023 27.0348H20.186L29.1976 12.2558V30.279H35.6859V0H29.9185L18.7441 18.7441Z" fill="white"/>
<path d="M50.1045 17.6627H64.1626V12.2558H50.1045V5.76742H65.9649V0H42.8952V30.279H66.3254V24.5116H50.1045V17.6627Z" fill="white"/>
<path d="M100.209 7.20928C98.7671 5.0465 96.9648 3.24418 94.4415 1.80232C91.9183 0.720928 89.0346 0 85.7904 0H72.0928V30.279H85.7904C89.0346 30.279 91.9183 29.558 94.4415 28.4767C96.9648 27.3953 98.7671 25.5929 100.209 23.0697C101.651 20.9069 102.372 18.0232 102.372 15.1395C102.372 12.2558 101.651 9.37206 100.209 7.20928ZM94.0811 20.186C93.3602 21.6278 92.2788 22.7092 90.4764 23.4302C88.6741 24.1511 87.2323 24.5116 85.0695 24.5116H78.5811V5.76742H85.0695C87.2323 5.76742 88.6741 6.12789 90.4764 6.84882C92.2788 7.56974 92.9997 8.65114 94.0811 10.093C94.802 11.5348 95.1625 13.3372 95.1625 15.1395C95.5229 16.9418 94.802 18.7441 94.0811 20.186Z" fill="white"/>
<path d="M9.0116 41.0938C7.56974 41.0938 6.12789 41.4542 4.68603 41.8147C3.24418 42.1751 2.16278 42.8961 1.08139 43.617L2.52325 46.8612C3.24418 46.1402 4.32557 45.7798 5.40696 45.4193C6.48835 45.0589 7.56974 45.0589 8.65114 45.0589C10.4535 45.0589 11.5348 45.4193 12.2558 46.1402C12.9767 46.8612 13.3372 47.9426 13.3372 49.3844V49.7449H8.29067C6.48835 49.7449 4.68603 50.1054 3.60464 50.4658C2.52325 50.8263 1.44186 51.5472 1.08139 52.6286C0.720928 53.71 0 54.0705 0 55.1518C0 56.2332 0.360464 57.3146 0.720928 58.0356C1.44186 58.7565 2.16278 59.4774 3.24418 60.1983C4.68603 60.9193 5.76742 61.2797 7.20928 61.2797C9.0116 61.2797 10.4535 60.9193 11.5348 60.1983C12.2558 59.8379 12.9767 59.117 13.3372 58.396V60.9193H17.6627V49.3844C17.6627 46.5007 16.9418 44.3379 15.5 43.2565C14.0581 41.8147 11.5348 41.0938 9.0116 41.0938ZM11.1744 56.9542C10.4535 57.6751 9.37206 57.6751 8.29067 57.6751C7.20928 57.6751 6.12789 57.6751 5.40696 56.9542C4.68603 56.5937 4.32557 55.8728 4.32557 55.1518C4.32557 54.4309 4.68603 53.71 5.0465 53.3495C5.76742 52.9891 6.48835 52.6286 8.29067 52.6286H12.9767V54.7914C12.6162 55.8728 12.2558 56.5937 11.1744 56.9542Z" fill="white"/>
<path d="M36.0464 50.8252C35.3254 50.4647 34.6045 50.1043 33.5231 50.1043C32.8022 49.7438 31.7208 49.7438 30.9999 49.7438C30.2789 49.7438 29.1976 49.3833 28.4766 49.3833C27.7557 49.3833 27.0348 49.0229 26.6743 48.6624C26.3138 48.3019 25.9534 47.9415 25.9534 47.2206C25.9534 46.4996 26.3138 46.1392 27.0348 45.7787C27.7557 45.4182 28.8371 45.0578 30.2789 45.0578C31.3603 45.0578 32.0813 45.0578 33.1627 45.4182C34.244 45.7787 34.965 46.1392 36.0464 46.4996L37.8487 42.895C36.7673 42.5345 35.6859 41.8136 34.6045 41.8136C33.1627 41.4531 32.0813 41.4531 30.6394 41.4531C28.8371 41.4531 27.3952 41.8136 25.9534 42.1741C24.5115 42.5345 23.7906 43.2554 23.0697 44.3368C22.3487 45.4182 21.9883 46.4996 21.9883 47.581C21.9883 48.6624 22.3487 49.7438 22.7092 50.4647C23.0697 51.1857 23.7906 51.5461 24.5115 52.267C25.2324 52.6275 25.9534 52.988 27.0348 53.3484C28.1162 53.7089 28.8371 53.7089 29.558 53.7089C30.2789 53.7089 31.3603 54.0694 32.0813 54.0694C32.8022 54.0694 33.5231 54.4298 33.8836 54.7903C34.244 55.1508 34.6045 55.5112 34.6045 55.8717C34.6045 56.5926 34.244 56.9531 33.5231 57.3135C32.8022 57.674 31.7208 58.0345 30.2789 58.0345C29.1976 58.0345 27.7557 58.0345 26.6743 57.674C25.5929 57.3135 24.5115 56.9531 23.4301 56.2322L21.6278 59.8368C22.7092 60.5577 23.7906 60.9182 25.2324 61.2786C26.3138 60.9182 28.1162 61.2786 29.558 61.2786C31.3603 61.2786 32.8022 60.9182 34.244 60.5577C35.6859 60.1973 36.4068 59.4763 37.1278 58.3949C37.8487 57.674 38.2092 56.5926 38.2092 55.1508C38.2092 54.0694 37.8487 52.988 37.4882 52.6275C37.4882 51.5461 36.7673 51.1857 36.0464 50.8252Z" fill="white"/>
<path d="M54.7906 50.8252C54.0696 50.4647 53.3487 50.1043 52.2673 50.1043C51.5464 49.7438 50.465 49.7438 49.7441 49.7438C49.0231 49.7438 47.9418 49.3833 47.2208 49.3833C46.4999 49.3833 45.779 49.0229 45.4185 48.6624C45.058 48.3019 44.6976 47.9415 44.6976 47.2206C44.6976 46.4996 45.058 46.1392 45.779 45.7787C46.4999 45.4182 47.5813 45.0578 49.0231 45.0578C50.1045 45.0578 50.8255 45.0578 51.9069 45.4182C52.9882 45.7787 53.7092 46.1392 54.7906 46.4996L56.5929 42.895C55.5115 42.5345 54.4301 41.8136 53.3487 41.8136C51.9069 41.4531 50.8255 41.4531 49.3836 41.4531C47.5813 41.4531 46.1394 41.8136 44.6976 42.1741C43.2557 42.5345 42.5348 43.2554 41.8139 44.3368C41.0929 45.4182 40.7325 46.4996 40.7325 47.581C40.7325 48.6624 41.0929 49.7438 41.4534 50.4647C41.8139 51.1857 42.5348 51.5461 43.2557 52.267C43.9767 52.6275 44.6976 52.988 45.779 53.3484C46.4999 53.7089 47.5813 53.7089 48.3022 53.7089C49.0231 53.7089 50.1045 54.0694 50.8255 54.0694C51.5464 54.0694 52.2673 54.4298 52.6278 54.7903C52.9883 55.1508 53.3487 55.5112 53.3487 55.8717C53.3487 56.5926 52.9883 56.9531 52.2673 57.3135C51.5464 57.674 50.465 58.0345 49.0231 58.0345C47.9418 58.0345 46.4999 58.0345 45.4185 57.674C44.3371 57.3135 43.2557 56.9531 42.1743 56.2322L40.372 59.8368C41.4534 60.5577 42.5348 60.9182 43.9766 61.2786C45.4185 61.6391 46.8604 61.9996 48.6627 61.9996C50.465 61.9996 51.9069 61.6391 53.3487 61.2786C54.7906 60.9182 55.5115 60.1973 56.2324 59.1159C56.9534 58.3949 57.3138 57.3135 57.3138 55.8717C57.3138 54.7903 56.9534 53.7089 56.5929 53.3484C56.2324 51.5461 55.5115 51.1857 54.7906 50.8252Z" fill="white"/>
<path d="M65.9649 41.4531H61.2789V60.9182H65.9649V41.4531Z" fill="white"/>
<path d="M84.3486 50.8252C83.6276 50.4647 82.9067 50.1043 81.8253 50.1043C81.1044 49.7438 80.023 49.7438 79.3021 49.7438C78.5811 49.7438 77.4997 49.3833 76.7788 49.3833C76.0579 49.3833 75.337 49.0229 74.9765 48.6624C74.616 48.3019 74.2556 47.9415 74.2556 47.2206C74.2556 46.4996 74.616 46.1392 75.337 45.7787C76.0579 45.4182 77.1393 45.0578 78.5811 45.0578C79.6625 45.0578 80.3835 45.0578 81.4648 45.4182C82.5462 45.7787 83.2672 46.1392 84.3486 46.4996L86.1509 42.895C85.0695 42.5345 83.9881 41.8136 82.9067 41.8136C81.4648 41.4531 80.3835 41.4531 78.9416 41.4531C77.1393 41.4531 75.6974 41.8136 74.2556 42.1741C72.8137 42.5345 72.0928 43.2554 71.3718 44.3368C70.6509 45.4182 70.2905 46.4996 70.2905 47.581C70.2905 48.6624 70.6509 49.7438 71.0114 50.4647C71.3719 51.1857 72.0928 51.5461 72.8137 52.267C73.5346 52.6275 74.2556 52.988 75.337 53.3484C76.0579 53.7089 77.1393 53.7089 77.8602 53.7089C78.5811 53.7089 79.6625 54.0694 80.3834 54.0694C81.1044 54.0694 81.8253 54.4298 82.1858 54.7903C82.5462 55.1508 82.9067 55.5112 82.9067 55.8717C82.9067 56.5926 82.5462 56.9531 81.8253 57.3135C81.1044 57.674 80.023 58.0345 78.5811 58.0345C77.4997 58.0345 76.0579 58.0345 74.9765 57.674C73.8951 57.3135 72.8137 56.9531 71.7323 56.2322L69.93 59.8368C71.0114 60.5577 72.0928 60.9182 73.5346 61.2786C74.9765 61.6391 76.4183 61.9996 78.2207 61.9996C80.023 61.9996 81.4648 61.6391 82.9067 61.2786C84.3486 60.9182 85.0695 60.1973 85.7904 59.1159C86.5113 58.3949 86.8718 57.3135 86.8718 55.8717C86.8718 54.7903 86.5113 53.7089 86.1509 53.3484C85.7904 51.5461 85.0695 51.1857 84.3486 50.8252Z" fill="white"/>
<path d="M101.29 56.594C100.569 56.9544 99.8485 57.3149 98.7671 57.3149C98.0462 57.3149 97.3253 56.9544 96.6044 56.594C95.8834 56.2335 95.8834 55.5126 95.8834 54.4312V45.0591H101.29V41.4545H95.8834V37.1289H91.1974V41.4545H87.9532V45.0591H91.1974V54.4312C91.1974 56.594 91.9183 58.0358 92.9997 59.4777C94.0811 60.5591 95.8834 61.28 98.0462 61.28C98.7671 61.28 99.4881 61.28 100.569 60.9195C101.29 60.5591 102.011 60.1986 102.732 59.8381L101.29 56.594Z" fill="white"/>
</svg>
