<svg width="40" height="40" viewBox="0 0 40 40" fill="none" xmlns="http://www.w3.org/2000/svg">
<ellipse cx="20" cy="20" rx="20" ry="20" transform="matrix(1 0 0 -1 0 40)" fill="white"/>
<path d="M25.6582 8.33362C25.3294 8.38683 25.0006 8.43339 24.6752 8.49325C23.4037 8.72935 22.2161 9.20157 21.0586 9.76358C19.1664 10.6847 17.4051 11.8121 15.8283 13.1988C12.668 15.9723 10.1652 19.2146 8.7595 23.2085C8.41059 24.1962 8.20259 25.2104 8.22607 26.2646C8.24956 27.2789 8.58169 28.1701 9.303 28.8984C9.94379 29.5435 10.5644 30.212 11.2488 30.8039C12.3593 31.765 13.5033 31.7517 14.5702 30.754C15.6471 29.7464 16.6872 28.6956 17.7003 27.6247C18.5324 26.7468 18.529 25.553 17.7138 24.6584C17.1434 24.0332 16.5261 23.4479 15.9189 22.856C15.7981 22.7396 15.788 22.6565 15.8585 22.5102C16.4624 21.2564 17.338 20.1989 18.2841 19.1946C19.247 18.1704 20.3071 17.2559 21.4981 16.5043C21.8101 16.3048 22.149 16.1485 22.471 15.9623C22.5985 15.8858 22.6757 15.8991 22.7797 16.0055C23.2863 16.5176 23.7962 17.0231 24.3095 17.5253C24.7088 17.9177 25.1583 18.2369 25.7287 18.33C26.5003 18.4564 27.1578 18.207 27.7013 17.6749C28.6944 16.7072 29.6774 15.7295 30.657 14.7518C31.7138 13.701 31.7977 12.5104 30.8214 11.3931C30.1471 10.6216 29.3989 9.90658 28.6474 9.2049C28.114 8.70608 27.4397 8.45999 26.7116 8.37353C26.6613 8.36688 26.611 8.34692 26.5607 8.33362C26.2654 8.33362 25.9601 8.33362 25.6582 8.33362ZM26.1078 9.49754C26.8123 9.48424 27.4631 9.66049 27.9731 10.1493C28.6575 10.8045 29.3184 11.4795 29.9626 12.1712C30.4524 12.7 30.4423 13.2653 29.9357 13.7841C28.9158 14.8216 27.8825 15.8392 26.8391 16.8535C26.4198 17.2625 25.8796 17.2659 25.4099 16.9067C25.3026 16.8236 25.2053 16.7271 25.108 16.634C24.541 16.0753 23.9807 15.5133 23.4138 14.958C23.0447 14.5955 22.6455 14.5323 22.1859 14.7651C21.8537 14.9314 21.5216 15.101 21.2029 15.2905C19.6965 16.1851 18.3915 17.3191 17.2139 18.6027C16.2175 19.6868 15.315 20.8374 14.7044 22.1876C14.4327 22.7895 14.4998 23.1254 14.9795 23.5843C15.5364 24.1164 16.0933 24.6518 16.6368 25.2005C17.281 25.8523 17.2743 26.381 16.6402 27.0428C16.6335 27.0494 16.6301 27.0528 16.6234 27.0594C15.684 27.9905 14.7447 28.9283 13.7986 29.8528C13.651 29.9991 13.4732 30.1355 13.2853 30.2186C12.7518 30.4581 12.3258 30.2219 11.95 29.8595C11.373 29.3008 10.7926 28.7454 10.2457 28.1601C9.9874 27.8841 9.75591 27.5549 9.6083 27.2124C9.28958 26.4642 9.3701 25.6727 9.53113 24.8979C9.83979 23.3947 10.4403 21.998 11.1885 20.6645C12.5136 18.3067 14.1978 16.2316 16.2141 14.4193C18.2338 12.6069 20.495 11.1769 23.0279 10.1793C24.0176 9.78686 25.0375 9.5308 26.1078 9.49754Z" fill="#39CE8E" stroke="#39CE8E" stroke-width="0.4"/>
</svg>
