<svg width="40" height="41" viewBox="0 0 40 41" fill="none" xmlns="http://www.w3.org/2000/svg">
<ellipse cx="19.8315" cy="20.007" rx="19.8315" ry="20.007" transform="matrix(1 0 0 -1 0 40.0137)" fill="white"/>
<path d="M8.07299 13.6909C8.07299 17.7617 8.07299 21.8325 8.07299 25.9033C8.10181 26.0264 8.128 26.1469 8.15681 26.2701C8.43711 27.3965 9.35919 28.0802 10.6113 28.0802C16.8852 28.0802 23.1591 28.0802 29.4329 28.0802C29.5063 28.0802 29.5796 28.0802 29.653 28.0776C30.9837 28.0068 31.932 27.035 31.9608 25.7042C31.9686 25.3296 31.9634 24.955 31.9634 24.5831C31.9634 21.0702 31.9634 17.5574 31.9634 14.0472C31.9634 12.9889 31.5102 12.2082 30.5384 11.7551C30.3524 11.6686 30.1454 11.6215 29.9463 11.5586C23.3319 11.5586 16.7149 11.5586 10.1005 11.5586C10.0508 11.5769 10.001 11.5979 9.95122 11.611C9.00032 11.8467 8.40568 12.4414 8.15158 13.3818C8.12276 13.4814 8.09919 13.5861 8.07299 13.6909ZM30.4152 26.9197C30.1061 27.145 29.7865 27.1738 29.4539 27.1738C23.1695 27.1712 16.8852 27.1712 10.6009 27.1712C10.4908 27.1712 10.3782 27.1843 10.2734 27.1607C10.0534 27.1057 9.83596 27.0271 9.57662 26.9459C11.8399 24.3709 14.0561 21.8482 16.2801 19.3151C16.3639 19.3858 16.4346 19.4435 16.5027 19.5011C17.5427 20.418 18.5853 21.3374 19.6253 22.2517C19.9344 22.5241 20.1073 22.5241 20.4111 22.2569C21.459 21.3348 22.5068 20.4101 23.5546 19.488C23.6122 19.4356 23.6725 19.3885 23.7432 19.3282C25.9751 21.8666 28.1834 24.3814 30.4152 26.9197ZM10.001 12.5724C10.0088 12.5488 10.0167 12.5252 10.0246 12.5016C10.1844 12.4833 10.3468 12.4519 10.5066 12.4519C16.8538 12.4492 23.201 12.4492 29.5482 12.4519C29.7106 12.4519 29.8756 12.4885 30.1088 12.5147C26.7059 15.5168 23.3686 18.4585 20.0234 21.4082C16.6652 18.448 13.3331 15.5089 10.001 12.5724ZM30.9994 26.2229C28.778 23.6924 26.6012 21.2169 24.4191 18.731C26.5671 16.837 28.6811 14.9745 30.871 13.0413C30.9418 13.3792 31.0492 13.6569 31.0518 13.9319C31.0623 17.8534 31.0597 21.7775 31.057 25.699C31.0544 25.8536 31.023 26.0029 30.9994 26.2229ZM9.20464 13.0675C11.371 14.9771 13.4824 16.8396 15.6121 18.7179C13.43 21.2012 11.2636 23.6662 9.09724 26.1338C9.07366 26.1234 9.04747 26.1129 9.02389 26.1024C9.01341 25.9138 8.99508 25.7252 8.99508 25.5366C8.99246 21.7251 8.99246 17.911 8.99508 14.0996C8.99508 13.9817 8.98198 13.8586 9.00817 13.7459C9.05532 13.5311 9.12867 13.3216 9.20464 13.0675Z" fill="#39CE8E" stroke="#39CE8E" stroke-width="0.4"/>
</svg>
