<svg width="65" height="39" viewBox="0 0 65 39" fill="none" xmlns="http://www.w3.org/2000/svg">
<path d="M11.7907 11.7907L4.76162 0H1.13373V19.0465H5.21511V7.70928L10.8837 17.0058H12.6976L18.3662 7.70928V19.0465H22.4476V0H18.8197L11.7907 11.7907Z" fill="white"/>
<path d="M31.5174 11.1104H40.3604V7.70928H31.5174V3.6279H41.4941V0H26.9825V19.0465H41.7208V15.4186H31.5174V11.1104Z" fill="white"/>
<path d="M63.0347 4.53487C62.1277 3.17441 60.994 2.04069 59.4068 1.13372C57.8196 0.453487 56.0056 0 53.9649 0H45.3487V19.0465H53.9649C56.0056 19.0465 57.8196 18.593 59.4068 17.9127C60.994 17.2325 62.1277 16.0988 63.0347 14.5116C63.9417 13.1511 64.3951 11.3372 64.3951 9.52323C64.3951 7.70928 63.9417 5.89533 63.0347 4.53487ZM59.18 12.6976C58.7266 13.6046 58.0463 14.2848 56.9126 14.7383C55.7789 15.1918 54.8719 15.4186 53.5115 15.4186H49.4301V3.6279H53.5115C54.8719 3.6279 55.7789 3.85464 56.9126 4.30813C58.0463 4.76161 58.4998 5.44184 59.18 6.34882C59.6335 7.25579 59.8603 8.38951 59.8603 9.52323C60.087 10.6569 59.6335 11.7907 59.18 12.6976Z" fill="white"/>
<path d="M5.66859 25.8496C4.76161 25.8496 3.85464 26.0764 2.94767 26.3031C2.04069 26.5298 1.36046 26.9833 0.680231 27.4368L1.5872 29.4775C2.04069 29.024 2.72092 28.7973 3.40115 28.5705C4.08138 28.3438 4.76161 28.3438 5.44184 28.3438C6.57556 28.3438 7.25579 28.5705 7.70928 29.024C8.16277 29.4775 8.38951 30.1577 8.38951 31.0647V31.2915H5.2151C4.08138 31.2915 2.94767 31.5182 2.26744 31.7449C1.5872 31.9717 0.906974 32.4252 0.680231 33.1054C0.453487 33.7856 0 34.0124 0 34.6926C0 35.3728 0.226744 36.0531 0.453487 36.5066C0.906974 36.96 1.36046 37.4135 2.04069 37.867C2.94767 38.3205 3.6279 38.5472 4.53487 38.5472C5.66859 38.5472 6.57556 38.3205 7.25579 37.867C7.70928 37.6403 8.16277 37.1868 8.38951 36.7333V38.3205H11.1104V31.0647C11.1104 29.2508 10.6569 27.8903 9.74997 27.2101C8.843 26.3031 7.25579 25.8496 5.66859 25.8496ZM7.02905 35.8263C6.57556 36.2798 5.89533 36.2798 5.2151 36.2798C4.53487 36.2798 3.85464 36.2798 3.40115 35.8263C2.94767 35.5996 2.72092 35.1461 2.72092 34.6926C2.72092 34.2391 2.94767 33.7856 3.17441 33.5589C3.6279 33.3321 4.08138 33.1054 5.2151 33.1054H8.16277V34.4659C7.93602 35.1461 7.70928 35.5996 7.02905 35.8263Z" fill="white"/>
<path d="M22.6744 31.9715C22.2209 31.7448 21.7674 31.518 21.0872 31.518C20.6337 31.2913 19.9534 31.2913 19.4999 31.2913C19.0465 31.2913 18.3662 31.0645 17.9127 31.0645C17.4593 31.0645 17.0058 30.8378 16.779 30.611C16.5523 30.3843 16.3255 30.1576 16.3255 29.7041C16.3255 29.2506 16.5523 29.0238 17.0058 28.7971C17.4593 28.5704 18.1395 28.3436 19.0465 28.3436C19.7267 28.3436 20.1802 28.3436 20.8604 28.5704C21.5406 28.7971 21.9941 29.0238 22.6744 29.2506L23.8081 26.9831C23.1278 26.7564 22.4476 26.3029 21.7674 26.3029C20.8604 26.0762 20.1802 26.0762 19.2732 26.0762C18.1395 26.0762 17.2325 26.3029 16.3255 26.5297C15.4186 26.7564 14.9651 27.2099 14.5116 27.8901C14.0581 28.5704 13.8314 29.2506 13.8314 29.9308C13.8314 30.611 14.0581 31.2913 14.2848 31.7448C14.5116 32.1982 14.9651 32.425 15.4186 32.8785C15.8721 33.1052 16.3255 33.332 17.0058 33.5587C17.686 33.7855 18.1395 33.7855 18.593 33.7855C19.0465 33.7855 19.7267 34.0122 20.1802 34.0122C20.6337 34.0122 21.0872 34.2389 21.3139 34.4657C21.5406 34.6924 21.7674 34.9192 21.7674 35.1459C21.7674 35.5994 21.5406 35.8261 21.0872 36.0529C20.6337 36.2796 19.9534 36.5064 19.0465 36.5064C18.3662 36.5064 17.4593 36.5064 16.779 36.2796C16.0988 36.0529 15.4186 35.8261 14.7383 35.3727L13.6046 37.6401C14.2848 38.0936 14.9651 38.3203 15.872 38.5471C16.5523 38.3203 17.686 38.5471 18.593 38.5471C19.7267 38.5471 20.6337 38.3203 21.5406 38.0936C22.4476 37.8668 22.9011 37.4133 23.3546 36.7331C23.8081 36.2796 24.0348 35.5994 24.0348 34.6924C24.0348 34.0122 23.8081 33.332 23.5813 33.1052C23.5813 32.425 23.1278 32.1982 22.6744 31.9715Z" fill="white"/>
<path d="M34.465 31.9715C34.0115 31.7448 33.558 31.518 32.8778 31.518C32.4243 31.2913 31.7441 31.2913 31.2906 31.2913C30.8371 31.2913 30.1569 31.0645 29.7034 31.0645C29.2499 31.0645 28.7964 30.8378 28.5697 30.611C28.3429 30.3843 28.1162 30.1576 28.1162 29.7041C28.1162 29.2506 28.3429 29.0238 28.7964 28.7971C29.2499 28.5704 29.9301 28.3436 30.8371 28.3436C31.5173 28.3436 31.9708 28.3436 32.6511 28.5704C33.3313 28.7971 33.7848 29.0238 34.465 29.2506L35.5987 26.9831C34.9185 26.7564 34.2383 26.3029 33.558 26.3029C32.6511 26.0762 31.9708 26.0762 31.0639 26.0762C29.9301 26.0762 29.0232 26.3029 28.1162 26.5297C27.2092 26.7564 26.7557 27.2099 26.3022 27.8901C25.8488 28.5704 25.622 29.2506 25.622 29.9308C25.622 30.611 25.8488 31.2913 26.0755 31.7448C26.3022 32.1982 26.7557 32.425 27.2092 32.8785C27.6627 33.1052 28.1162 33.332 28.7964 33.5587C29.2499 33.7855 29.9301 33.7855 30.3836 33.7855C30.8371 33.7855 31.5173 34.0122 31.9708 34.0122C32.4243 34.0122 32.8778 34.2389 33.1045 34.4657C33.3313 34.6924 33.558 34.9192 33.558 35.1459C33.558 35.5994 33.3313 35.8261 32.8778 36.0529C32.4243 36.2796 31.7441 36.5064 30.8371 36.5064C30.1569 36.5064 29.2499 36.5064 28.5697 36.2796C27.8894 36.0529 27.2092 35.8261 26.529 35.3727L25.3953 37.6401C26.0755 38.0936 26.7557 38.3203 27.6627 38.5471C28.5697 38.7738 29.4766 39.0006 30.6104 39.0006C31.7441 39.0006 32.6511 38.7738 33.558 38.5471C34.465 38.3203 34.9185 37.8668 35.372 37.1866C35.8255 36.7331 36.0522 36.0529 36.0522 35.1459C36.0522 34.4657 35.8255 33.7855 35.5987 33.5587C35.372 32.425 34.9185 32.1982 34.465 31.9715Z" fill="white"/>
<path d="M41.4941 26.0762H38.5464V38.3203H41.4941V26.0762Z" fill="white"/>
<path d="M53.058 31.9715C52.6045 31.7448 52.151 31.518 51.4708 31.518C51.0173 31.2913 50.337 31.2913 49.8836 31.2913C49.4301 31.2913 48.7498 31.0645 48.2963 31.0645C47.8429 31.0645 47.3894 30.8378 47.1626 30.611C46.9359 30.3843 46.7091 30.1576 46.7091 29.7041C46.7091 29.2506 46.9359 29.0238 47.3894 28.7971C47.8429 28.5704 48.5231 28.3436 49.4301 28.3436C50.1103 28.3436 50.5638 28.3436 51.244 28.5704C51.9242 28.7971 52.3777 29.0238 53.058 29.2506L54.1917 26.9831C53.5114 26.7564 52.8312 26.3029 52.151 26.3029C51.244 26.0762 50.5638 26.0762 49.6568 26.0762C48.5231 26.0762 47.6161 26.3029 46.7091 26.5297C45.8022 26.7564 45.3487 27.2099 44.8952 27.8901C44.4417 28.5704 44.215 29.2506 44.215 29.9308C44.215 30.611 44.4417 31.2913 44.6685 31.7448C44.8952 32.1982 45.3487 32.425 45.8022 32.8785C46.2557 33.1052 46.7091 33.332 47.3894 33.5587C47.8429 33.7855 48.5231 33.7855 48.9766 33.7855C49.4301 33.7855 50.1103 34.0122 50.5638 34.0122C51.0173 34.0122 51.4708 34.2389 51.6975 34.4657C51.9242 34.6924 52.151 34.9192 52.151 35.1459C52.151 35.5994 51.9242 35.8261 51.4708 36.0529C51.0173 36.2796 50.337 36.5064 49.4301 36.5064C48.7498 36.5064 47.8429 36.5064 47.1626 36.2796C46.4824 36.0529 45.8022 35.8261 45.1219 35.3727L43.9882 37.6401C44.6685 38.0936 45.3487 38.3203 46.2557 38.5471C47.1626 38.7738 48.0696 39.0006 49.2033 39.0006C50.337 39.0006 51.244 38.7738 52.151 38.5471C53.058 38.3203 53.5114 37.8668 53.9649 37.1866C54.4184 36.7331 54.6452 36.0529 54.6452 35.1459C54.6452 34.4657 54.4184 33.7855 54.1917 33.5587C53.9649 32.425 53.5114 32.1982 53.058 31.9715Z" fill="white"/>
<path d="M63.715 35.5996C63.2615 35.8264 62.808 36.0531 62.1277 36.0531C61.6743 36.0531 61.2208 35.8264 60.7673 35.5996C60.3138 35.3729 60.3138 34.9194 60.3138 34.2392V28.3438H63.715V26.0764H60.3138V23.3555H57.3661V26.0764H55.3254V28.3438H57.3661V34.2392C57.3661 35.5996 57.8196 36.5066 58.4998 37.4136C59.1801 38.0938 60.3138 38.5473 61.6743 38.5473C62.1277 38.5473 62.5812 38.5473 63.2615 38.3205C63.715 38.0938 64.1684 37.8671 64.6219 37.6403L63.715 35.5996Z" fill="white"/>
</svg>
